# xmcd CD Database Entry
#
# Track frame offsets:
# 182
# 13722
# 25200
# 36010
# 46865
# 67570
# 79460
# 94202
# 108815
# 118530
# 130172
# 142010
# 157930
# 175142
#
# Disc length: 2557 seconds
#
# Revision: 21
# Processed by: cddbd v1.4PL0 Copyright (c) Steve Scherf et al.
# Submitted via: tcd 2.0b
#
DISCID=a909fb0e
DTITLE=Orlando Contrera - Música Ibero Americana
DYEAR=1900
DGENRE=
TTITLE0=El madrugador
TTITLE1=Mi corazonada
TTITLE2=Humanidad
TTITLE3=En un beso la vida
TTITLE4=El barco
TTITLE5=Arrepentido
TTITLE6=Yo te quiero así
TTITLE7=Amor verdadero
TTITLE8=Piénsalo bien
TTITLE9=Tu nombre
TTITLE10=Si hoy fuera ayer
TTITLE11=La cama vacía
TTITLE12=Después de tanto
TTITLE13=Mi son vueltavajero
EXTD=
EXTT0=
EXTT1=
EXTT2=
EXTT3=
EXTT4=
EXTT5=
EXTT6=
EXTT7=
EXTT8=
EXTT9=
EXTT10=
EXTT11=
EXTT12=
EXTT13=
PLAYORDER=
